<?xml version="1.0" encoding="UTF-8"?>
<!-- Generated by Pixelmator Pro 3.5.9 -->
<svg width="468" height="32" viewBox="0 0 468 32" xmlns="http://www.w3.org/2000/svg">
    <path id="Path" fill="#826be4" fill-rule="evenodd" stroke="none" d="M 169.643005 0 L 136.067993 32 L 106.286003 32 L 139.860992 0 L 169.643005 0 Z M 87.142403 32 L 120.718002 -4e-06 L 90.935699 -4e-06 L 57.3606 32 L 87.142403 32 Z M 38.221001 32 L 71.796204 -4e-06 L 42.014301 -8e-06 L 8.43919 32 L 38.221001 32 Z M 0.000136 21.797899 L 22.871 -8e-06 L 0.000137 -8e-06 L 0.000136 21.797899 Z M 175.384995 12.769001 L 175.384995 32 L 155.207001 32 L 175.384995 12.769001 Z"/>
    <path id="path1" fill="#826be4" fill-rule="evenodd" stroke="none" d="M 316.411987 0 L 282.837006 32 L 253.054993 32 L 286.630005 0 L 316.411987 0 Z M 233.912003 32 L 267.487 -4e-06 L 237.705002 -4e-06 L 204.130005 32 L 233.912003 32 Z M 184.990005 32 L 218.565002 -4e-06 L 188.783005 -8e-06 L 155.207993 32 L 184.990005 32 Z M 146.770996 21.7966 L 169.639999 -8e-06 L 146.770996 -8e-06 L 146.770996 21.7966 Z M 322.154999 12.7677 L 322.154999 32 L 301.976013 32 L 322.154999 12.7677 Z"/>
    <path id="path2" fill="#826be4" fill-rule="evenodd" stroke="none" d="M 462.255005 0 L 428.679993 32 L 398.89801 32 L 432.472992 0 L 462.255005 0 Z M 379.755005 32 L 413.329987 -4e-06 L 383.548004 -4e-06 L 349.972992 32 L 379.755005 32 Z M 330.834015 32 L 364.408997 -4e-06 L 334.627014 -8e-06 L 301.052002 32 L 330.834015 32 Z M 292.61499 21.7953 L 315.484009 -8e-06 L 292.61499 -8e-06 L 292.61499 21.7953 Z M 468 12.7665 L 468 32 L 447.820007 32 L 468 12.7665 Z"/>
    <path id="path3" fill="#826be4" fill-rule="evenodd" stroke="none" d="M 414.256012 0 L 380.681 32 L 350.898987 32 L 384.473999 0 L 414.256012 0 Z M 331.756012 32 L 365.330994 -4e-06 L 335.549011 -4e-06 L 301.973999 32 L 331.756012 32 Z M 282.834015 32 L 316.408997 -4e-06 L 286.627991 -8e-06 L 253.052994 32 L 282.834015 32 Z M 244.615997 21.795601 L 267.484009 -8e-06 L 244.615997 -8e-06 L 244.615997 21.795601 Z M 420 12.766701 L 420 32 L 399.820007 32 L 420 12.766701 Z"/>
</svg>
