<svg width="49" height="48" viewBox="0 0 49 48" fill="none" xmlns="http://www.w3.org/2000/svg">
<g clip-path="url(#clip0_1235_43)">
<path d="M41.4235 8.31115C38.3642 6.90738 35.0835 5.87315 31.6533 5.28081C31.5908 5.26937 31.5284 5.29794 31.4962 5.35508C31.0743 6.10551 30.607 7.08451 30.2797 7.854C26.5903 7.30166 22.9199 7.30166 19.3061 7.854C18.9788 7.06741 18.4945 6.10551 18.0706 5.35508C18.0385 5.29985 17.9761 5.27128 17.9136 5.28081C14.4853 5.87126 11.2046 6.90549 8.14336 8.31115C8.11686 8.32257 8.09414 8.34164 8.07907 8.36638C1.85627 17.6631 0.151589 26.7313 0.98785 35.6871C0.991634 35.7309 1.01623 35.7728 1.05029 35.7995C5.15591 38.8145 9.1329 40.645 13.036 41.8582C13.0985 41.8773 13.1647 41.8544 13.2045 41.803C14.1277 40.5421 14.9508 39.2127 15.6564 37.8146C15.6981 37.7327 15.6583 37.6356 15.5732 37.6032C14.2678 37.108 13.0247 36.5042 11.8289 35.8185C11.7344 35.7633 11.7268 35.628 11.8138 35.5632C12.0654 35.3747 12.3171 35.1785 12.5574 34.9804C12.6009 34.9443 12.6614 34.9366 12.7126 34.9595C20.5681 38.546 29.0726 38.546 36.8354 34.9595C36.8865 34.9347 36.9471 34.9424 36.9924 34.9785C37.2328 35.1766 37.4844 35.3747 37.7379 35.5632C37.8249 35.628 37.8193 35.7633 37.7247 35.8185C36.5289 36.5175 35.2859 37.108 33.9785 37.6013C33.8934 37.6337 33.8555 37.7327 33.8972 37.8146C34.618 39.2107 35.441 40.5402 36.3473 41.8011C36.3851 41.8544 36.4532 41.8773 36.5157 41.8582C40.4378 40.645 44.4147 38.8145 48.5204 35.7995C48.5563 35.7728 48.579 35.7328 48.5828 35.689C49.5837 25.3351 46.9065 16.3413 41.4859 8.36827C41.4727 8.34164 41.45 8.32257 41.4235 8.31115ZM16.8295 30.234C14.4645 30.234 12.5158 28.0627 12.5158 25.3961C12.5158 22.7295 14.4267 20.5582 16.8295 20.5582C19.2512 20.5582 21.1811 22.7486 21.1432 25.3961C21.1432 28.0627 19.2323 30.234 16.8295 30.234ZM32.779 30.234C30.414 30.234 28.4653 28.0627 28.4653 25.3961C28.4653 22.7295 30.3761 20.5582 32.779 20.5582C35.2008 20.5582 37.1306 22.7486 37.0928 25.3961C37.0928 28.0627 35.2008 30.234 32.779 30.234Z" fill="white"/>
</g>
<defs>
<clipPath id="clip0_1235_43">
<rect width="48" height="48" fill="white" transform="translate(0.78949)"/>
</clipPath>
</defs>
</svg>
