<?xml version="1.0" encoding="UTF-8"?>
<!-- Generated by Pixelmator Pro 3.5.9 -->
<svg width="16" height="443" viewBox="0 0 16 443" xmlns="http://www.w3.org/2000/svg">
    <path id="Path" fill="#826be4" stroke="none" d="M 8 443 C 12.4183 443 16 439.417999 16 435 C 16 430.582001 12.4183 427 8 427 C 3.58172 427 0 430.582001 -0 435 C -0 439.417999 3.58172 443 8 443 Z M 8.00002 16 C 12.4183 16 16 12.418304 16 8 C 16 3.581726 12.4183 0 8.00002 0 C 3.58174 0 1.9e-05 3.581726 1.9e-05 8 C 1.8e-05 12.418304 3.58174 16 8.00002 16 Z M 9.5 435 L 9.50002 8 L 6.50002 8 L 6.5 435 L 9.5 435 Z"/>
</svg>
