<svg width="42" height="34" viewBox="0 0 42 34" fill="none" xmlns="http://www.w3.org/2000/svg">
<path d="M4.83166 33.9409C3.72008 33.9409 2.76883 33.5266 1.97793 32.6979C1.18702 31.8692 0.790898 30.8718 0.789551 29.7057V4.29389C0.789551 3.12918 1.18568 2.13248 1.97793 1.30377C2.77018 0.475064 3.72142 0.0600055 4.83166 0.0585938H37.1685C38.2801 0.0585938 39.232 0.473652 40.0242 1.30377C40.8165 2.13389 41.2119 3.13059 41.2106 4.29389V29.7057C41.2106 30.8704 40.8151 31.8678 40.0242 32.6979C39.2333 33.528 38.2814 33.9424 37.1685 33.9409H4.83166ZM21.0001 19.1174L37.1685 8.52918V4.29389L21.0001 14.8821L4.83166 4.29389V8.52918L21.0001 19.1174Z" fill="white"/>
</svg>
