<svg width="49" height="48" viewBox="0 0 49 48" fill="none" xmlns="http://www.w3.org/2000/svg">
<g clip-path="url(#clip0_1235_42)">
<path d="M24.7895 4.32187C31.202 4.32187 31.9614 4.35 34.4832 4.4625C36.827 4.56562 38.0926 4.95938 38.9364 5.2875C40.052 5.71875 40.8582 6.24375 41.6926 7.07812C42.5364 7.92188 43.052 8.71875 43.4832 9.83438C43.8114 10.6781 44.2051 11.9531 44.3082 14.2875C44.4207 16.8187 44.4489 17.5781 44.4489 23.9813C44.4489 30.3938 44.4207 31.1531 44.3082 33.675C44.2051 36.0188 43.8114 37.2844 43.4832 38.1281C43.052 39.2438 42.527 40.05 41.6926 40.8844C40.8489 41.7281 40.052 42.2438 38.9364 42.675C38.0926 43.0031 36.8176 43.3969 34.4832 43.5C31.952 43.6125 31.1926 43.6406 24.7895 43.6406C18.377 43.6406 17.6176 43.6125 15.0957 43.5C12.752 43.3969 11.4864 43.0031 10.6426 42.675C9.52699 42.2438 8.72074 41.7188 7.88636 40.8844C7.04261 40.0406 6.52699 39.2438 6.09574 38.1281C5.76761 37.2844 5.37387 36.0094 5.27074 33.675C5.15824 31.1438 5.13012 30.3844 5.13012 23.9813C5.13012 17.5688 5.15824 16.8094 5.27074 14.2875C5.37387 11.9437 5.76761 10.6781 6.09574 9.83438C6.52699 8.71875 7.05199 7.9125 7.88636 7.07812C8.73011 6.23438 9.52699 5.71875 10.6426 5.2875C11.4864 4.95938 12.7614 4.56562 15.0957 4.4625C17.6176 4.35 18.377 4.32187 24.7895 4.32187ZM24.7895 0C18.2739 0 17.4582 0.028125 14.8989 0.140625C12.3489 0.253125 10.5957 0.665625 9.07699 1.25625C7.49261 1.875 6.15199 2.69062 4.82074 4.03125C3.48011 5.3625 2.66449 6.70313 2.04574 8.27813C1.45511 9.80625 1.04261 11.55 0.930115 14.1C0.817615 16.6687 0.78949 17.4844 0.78949 24C0.78949 30.5156 0.817615 31.3312 0.930115 33.8906C1.04261 36.4406 1.45511 38.1938 2.04574 39.7125C2.66449 41.2969 3.48011 42.6375 4.82074 43.9688C6.15199 45.3 7.49262 46.125 9.06762 46.7344C10.5957 47.325 12.3395 47.7375 14.8895 47.85C17.4489 47.9625 18.2645 47.9906 24.7801 47.9906C31.2957 47.9906 32.1114 47.9625 34.6707 47.85C37.2207 47.7375 38.9739 47.325 40.4926 46.7344C42.0676 46.125 43.4082 45.3 44.7395 43.9688C46.0707 42.6375 46.8957 41.2969 47.5051 39.7219C48.0957 38.1938 48.5082 36.45 48.6207 33.9C48.7332 31.3406 48.7614 30.525 48.7614 24.0094C48.7614 17.4938 48.7332 16.6781 48.6207 14.1188C48.5082 11.5688 48.0957 9.81563 47.5051 8.29688C46.9145 6.70312 46.0989 5.3625 44.7582 4.03125C43.427 2.7 42.0864 1.875 40.5114 1.26562C38.9832 0.675 37.2395 0.2625 34.6895 0.15C32.1207 0.028125 31.3051 0 24.7895 0Z" fill="white"/>
<path d="M24.7895 11.6719C17.9832 11.6719 12.4614 17.1938 12.4614 24C12.4614 30.8062 17.9832 36.3281 24.7895 36.3281C31.5957 36.3281 37.1176 30.8062 37.1176 24C37.1176 17.1938 31.5957 11.6719 24.7895 11.6719ZM24.7895 31.9969C20.3739 31.9969 16.7926 28.4156 16.7926 24C16.7926 19.5844 20.3739 16.0031 24.7895 16.0031C29.2051 16.0031 32.7864 19.5844 32.7864 24C32.7864 28.4156 29.2051 31.9969 24.7895 31.9969Z" fill="white"/>
<path d="M40.4832 11.1843C40.4832 12.778 39.1895 14.0624 37.6051 14.0624C36.0114 14.0624 34.727 12.7687 34.727 11.1843C34.727 9.59053 36.0207 8.30615 37.6051 8.30615C39.1895 8.30615 40.4832 9.5999 40.4832 11.1843Z" fill="white"/>
</g>
<defs>
<clipPath id="clip0_1235_42">
<rect width="48" height="48" fill="white" transform="translate(0.78949)"/>
</clipPath>
</defs>
</svg>
