<svg width="156" height="37" viewBox="0 0 156 37" fill="none" xmlns="http://www.w3.org/2000/svg">
<path d="M17.2734 23.0703C17.2734 24.9297 16.9219 26.6797 16.2188 28.3203C15.5156 29.9453 14.5547 31.3672 13.3359 32.5859C12.1328 33.7891 10.7109 34.7422 9.07031 35.4453C7.44531 36.1484 5.70312 36.5 3.84375 36.5C2.71875 36.5 1.59375 36.3594 0.46875 36.0781V28.8594C0.96875 29.1562 1.50781 29.3828 2.08594 29.5391C2.66406 29.6953 3.25 29.7734 3.84375 29.7734C4.76562 29.7734 5.63281 29.6016 6.44531 29.2578C7.27344 28.8984 7.99219 28.4141 8.60156 27.8047C9.21094 27.1953 9.6875 26.4844 10.0312 25.6719C10.3906 24.8594 10.5703 23.9922 10.5703 23.0703V2.89062H17.2734V23.0703ZM46.3359 23.7266C46.3359 25.6016 46 27.3516 45.3281 28.9766C44.6562 30.5859 43.7422 31.9844 42.5859 33.1719C41.4297 34.3438 40.0703 35.2734 38.5078 35.9609C36.9609 36.6328 35.2969 36.9688 33.5156 36.9688C31.75 36.9688 30.0859 36.6328 28.5234 35.9609C26.9766 35.2734 25.6172 34.3438 24.4453 33.1719C23.2891 31.9844 22.375 30.5859 21.7031 28.9766C21.0312 27.3516 20.6953 25.6016 20.6953 23.7266C20.6953 21.8203 21.0312 20.0547 21.7031 18.4297C22.375 16.8047 23.2891 15.4062 24.4453 14.2344C25.6172 13.0469 26.9766 12.1172 28.5234 11.4453C30.0859 10.7734 31.75 10.4375 33.5156 10.4375C35.2969 10.4375 36.9609 10.7578 38.5078 11.3984C40.0703 12.0234 41.4297 12.9219 42.5859 14.0938C43.7422 15.25 44.6562 16.6484 45.3281 18.2891C46 19.9141 46.3359 21.7266 46.3359 23.7266ZM39.8906 23.7266C39.8906 22.6953 39.7188 21.7656 39.375 20.9375C39.0469 20.0938 38.5938 19.375 38.0156 18.7812C37.4375 18.1719 36.7578 17.7109 35.9766 17.3984C35.2109 17.0703 34.3906 16.9062 33.5156 16.9062C32.6406 16.9062 31.8125 17.0703 31.0312 17.3984C30.2656 17.7109 29.5938 18.1719 29.0156 18.7812C28.4531 19.375 28.0078 20.0938 27.6797 20.9375C27.3516 21.7656 27.1875 22.6953 27.1875 23.7266C27.1875 24.6953 27.3516 25.5938 27.6797 26.4219C28.0078 27.25 28.4531 27.9688 29.0156 28.5781C29.5938 29.1875 30.2656 29.6719 31.0312 30.0312C31.8125 30.375 32.6406 30.5469 33.5156 30.5469C34.3906 30.5469 35.2109 30.3828 35.9766 30.0547C36.7578 29.7266 37.4375 29.2656 38.0156 28.6719C38.5938 28.0781 39.0469 27.3594 39.375 26.5156C39.7188 25.6719 39.8906 24.7422 39.8906 23.7266ZM57.4219 4.57812C57.4219 5.17188 57.3047 5.72656 57.0703 6.24219C56.8516 6.75781 56.5469 7.21094 56.1562 7.60156C55.7656 7.97656 55.3047 8.28125 54.7734 8.51562C54.2578 8.73438 53.7031 8.84375 53.1094 8.84375C52.5156 8.84375 51.9531 8.73438 51.4219 8.51562C50.9062 8.28125 50.4531 7.97656 50.0625 7.60156C49.6875 7.21094 49.3828 6.75781 49.1484 6.24219C48.9297 5.72656 48.8203 5.17188 48.8203 4.57812C48.8203 4 48.9297 3.45312 49.1484 2.9375C49.3828 2.40625 49.6875 1.95312 50.0625 1.57812C50.4531 1.1875 50.9062 0.882812 51.4219 0.664062C51.9531 0.429688 52.5156 0.3125 53.1094 0.3125C53.7031 0.3125 54.2578 0.429688 54.7734 0.664062C55.3047 0.882812 55.7656 1.1875 56.1562 1.57812C56.5469 1.95312 56.8516 2.40625 57.0703 2.9375C57.3047 3.45312 57.4219 4 57.4219 4.57812ZM56.3203 36.5H49.875V11.3984H56.3203V36.5ZM67.6172 36.5H61.2188V11.3984H62.7656L64.875 13.8359C65.9062 12.8984 67.0703 12.1797 68.3672 11.6797C69.6797 11.1641 71.0469 10.9062 72.4688 10.9062C74 10.9062 75.4453 11.2031 76.8047 11.7969C78.1641 12.375 79.3516 13.1797 80.3672 14.2109C81.3828 15.2266 82.1797 16.4219 82.7578 17.7969C83.3516 19.1562 83.6484 20.6094 83.6484 22.1562V36.5H77.25V22.1562C77.25 21.5 77.125 20.8828 76.875 20.3047C76.625 19.7109 76.2812 19.1953 75.8438 18.7578C75.4062 18.3203 74.8984 17.9766 74.3203 17.7266C73.7422 17.4766 73.125 17.3516 72.4688 17.3516C71.7969 17.3516 71.1641 17.4766 70.5703 17.7266C69.9766 17.9766 69.4609 18.3203 69.0234 18.7578C68.5859 19.1953 68.2422 19.7109 67.9922 20.3047C67.7422 20.8828 67.6172 21.5 67.6172 22.1562V36.5ZM128.859 23.0703C128.859 24.9297 128.508 26.6797 127.805 28.3203C127.102 29.9453 126.141 31.3672 124.922 32.5859C123.703 33.7891 122.273 34.7422 120.633 35.4453C119.008 36.1484 117.266 36.5 115.406 36.5C113.547 36.5 111.797 36.1484 110.156 35.4453C108.531 34.7422 107.109 33.7891 105.891 32.5859C104.688 31.3672 103.734 29.9453 103.031 28.3203C102.328 26.6797 101.977 24.9297 101.977 23.0703V2.89062H108.68V23.0703C108.68 23.9922 108.852 24.8594 109.195 25.6719C109.555 26.4844 110.039 27.1953 110.648 27.8047C111.258 28.4141 111.969 28.8984 112.781 29.2578C113.609 29.6016 114.484 29.7734 115.406 29.7734C116.328 29.7734 117.195 29.6016 118.008 29.2578C118.836 28.8984 119.555 28.4141 120.164 27.8047C120.773 27.1953 121.25 26.4844 121.594 25.6719C121.953 24.8594 122.133 23.9922 122.133 23.0703V2.89062H128.859V23.0703ZM147.328 36.5H132.703V30.125H147.328C147.766 30.125 148.141 29.9688 148.453 29.6562C148.766 29.3438 148.922 28.9688 148.922 28.5312C148.922 28.0781 148.766 27.7812 148.453 27.6406C148.141 27.5 147.766 27.4297 147.328 27.4297H140.672C139.562 27.4297 138.523 27.2188 137.555 26.7969C136.586 26.375 135.742 25.8047 135.023 25.0859C134.305 24.3516 133.734 23.5 133.312 22.5312C132.906 21.5625 132.703 20.5234 132.703 19.4141C132.703 18.3047 132.906 17.2656 133.312 16.2969C133.734 15.3281 134.305 14.4844 135.023 13.7656C135.742 13.0469 136.586 12.4844 137.555 12.0781C138.523 11.6562 139.562 11.4453 140.672 11.4453H153.633V17.8203H140.672C140.234 17.8203 139.859 17.9766 139.547 18.2891C139.234 18.6016 139.078 18.9766 139.078 19.4141C139.078 19.8672 139.234 20.2578 139.547 20.5859C139.859 20.8984 140.234 21.0547 140.672 21.0547H147.328C148.422 21.0547 149.453 21.2422 150.422 21.6172C151.391 21.9766 152.234 22.4844 152.953 23.1406C153.672 23.7969 154.242 24.5859 154.664 25.5078C155.086 26.4297 155.297 27.4375 155.297 28.5312C155.297 29.6406 155.086 30.6797 154.664 31.6484C154.242 32.6016 153.672 33.4453 152.953 34.1797C152.234 34.8984 151.391 35.4688 150.422 35.8906C149.453 36.2969 148.422 36.5 147.328 36.5Z" fill="white"/>
</svg>
