<svg width="49" height="48" viewBox="0 0 49 48" fill="none" xmlns="http://www.w3.org/2000/svg">
<g clip-path="url(#clip0_1235_45)">
<path d="M44.6574 0H3.75432C1.79495 0 0.210571 1.54688 0.210571 3.45938V44.5312C0.210571 46.4437 1.79495 48 3.75432 48H44.6574C46.6168 48 48.2106 46.4438 48.2106 44.5406V3.45938C48.2106 1.54688 46.6168 0 44.6574 0ZM14.4512 40.9031H7.3262V17.9906H14.4512V40.9031ZM10.8887 14.8688C8.6012 14.8688 6.75432 13.0219 6.75432 10.7437C6.75432 8.46562 8.6012 6.61875 10.8887 6.61875C13.1668 6.61875 15.0137 8.46562 15.0137 10.7437C15.0137 13.0125 13.1668 14.8688 10.8887 14.8688ZM41.1137 40.9031H33.9981V29.7656C33.9981 27.1125 33.9512 23.6906 30.2949 23.6906C26.5918 23.6906 26.0293 26.5875 26.0293 29.5781V40.9031H18.9231V17.9906H25.7481V21.1219H25.8418C26.7887 19.3219 29.1137 17.4188 32.5731 17.4188C39.7824 17.4188 41.1137 22.1625 41.1137 28.3313V40.9031Z" fill="white"/>
</g>
<defs>
<clipPath id="clip0_1235_45">
<rect width="48" height="48" fill="white" transform="translate(0.210571)"/>
</clipPath>
</defs>
</svg>
