<svg width="931" height="32" viewBox="0 0 931 32" fill="none" xmlns="http://www.w3.org/2000/svg">
<path fill-rule="evenodd" clip-rule="evenodd" d="M183.778 -2.71978e-07L147.405 32L115.141 32L151.514 -1.68227e-06L183.778 -2.71978e-07ZM94.4048 32L130.778 -2.58868e-06L98.5142 -3.99897e-06L62.1411 32L94.4048 32ZM41.4048 32L77.7779 -4.90539e-06L45.5142 -6.31567e-06L9.14113 32L41.4048 32ZM-9.52859e-07 21.7989L24.7779 -7.22209e-06L0 -8.30516e-06L-9.52859e-07 21.7989ZM190 12.7692L190 32L168.141 32L190 12.7692Z" fill="#826BE4"/>
<path fill-rule="evenodd" clip-rule="evenodd" d="M342.778 -2.71978e-07L306.405 32L274.141 32L310.514 -1.68227e-06L342.778 -2.71978e-07ZM253.405 32L289.778 -2.58868e-06L257.514 -3.99897e-06L221.141 32L253.405 32ZM200.405 32L236.778 -4.90539e-06L204.514 -6.31567e-06L168.141 32L200.405 32ZM159 21.7989L183.778 -7.22209e-06L159 -8.30516e-06L159 21.7989ZM349 12.7692L349 32L327.141 32L349 12.7692Z" fill="#826BE4"/>
<path fill-rule="evenodd" clip-rule="evenodd" d="M500.778 -2.71978e-07L464.405 32L432.141 32L468.514 -1.68227e-06L500.778 -2.71978e-07ZM411.405 32L447.778 -2.58868e-06L415.514 -3.99897e-06L379.141 32L411.405 32ZM358.405 32L394.778 -4.90539e-06L362.514 -6.31567e-06L326.141 32L358.405 32ZM317 21.7989L341.778 -7.22209e-06L317 -8.30516e-06L317 21.7989ZM507 12.7692L507 32L485.141 32L507 12.7692Z" fill="#826BE4"/>
<path fill-rule="evenodd" clip-rule="evenodd" d="M659.778 -2.71978e-07L623.405 32L591.141 32L627.514 -1.68227e-06L659.778 -2.71978e-07ZM570.405 32L606.778 -2.58868e-06L574.514 -3.99897e-06L538.141 32L570.405 32ZM517.405 32L553.778 -4.90539e-06L521.514 -6.31567e-06L485.141 32L517.405 32ZM476 21.7989L500.778 -7.22209e-06L476 -8.30516e-06L476 21.7989ZM666 12.7692L666 32L644.141 32L666 12.7692Z" fill="#826BE4"/>
<path fill-rule="evenodd" clip-rule="evenodd" d="M448.778 -2.71978e-07L412.405 32L380.141 32L416.514 -1.68227e-06L448.778 -2.71978e-07ZM359.405 32L395.778 -2.58868e-06L363.514 -3.99897e-06L327.141 32L359.405 32ZM306.405 32L342.778 -4.90539e-06L310.514 -6.31567e-06L274.141 32L306.405 32ZM265 21.7989L289.778 -7.22209e-06L265 -8.30516e-06L265 21.7989ZM455 12.7692L455 32L433.141 32L455 12.7692Z" fill="#826BE4"/>
<path fill-rule="evenodd" clip-rule="evenodd" d="M607.778 -2.71978e-07L571.405 32L539.141 32L575.514 -1.68227e-06L607.778 -2.71978e-07ZM518.405 32L554.778 -2.58868e-06L522.514 -3.99897e-06L486.141 32L518.405 32ZM465.405 32L501.778 -4.90539e-06L469.514 -6.31567e-06L433.141 32L465.405 32ZM424 21.7989L448.778 -7.22209e-06L424 -8.30516e-06L424 21.7989ZM614 12.7692L614 32L592.141 32L614 12.7692Z" fill="#826BE4"/>
<path fill-rule="evenodd" clip-rule="evenodd" d="M765.778 -2.71978e-07L729.405 32L697.141 32L733.514 -1.68227e-06L765.778 -2.71978e-07ZM676.405 32L712.778 -2.58868e-06L680.514 -3.99897e-06L644.141 32L676.405 32ZM623.405 32L659.778 -4.90539e-06L627.514 -6.31567e-06L591.141 32L623.405 32ZM582 21.7989L606.778 -7.22209e-06L582 -8.30516e-06L582 21.7989ZM772 12.7692L772 32L750.141 32L772 12.7692Z" fill="#826BE4"/>
<path fill-rule="evenodd" clip-rule="evenodd" d="M924.778 -2.71978e-07L888.405 32L856.141 32L892.514 -1.68227e-06L924.778 -2.71978e-07ZM835.405 32L871.778 -2.58868e-06L839.514 -3.99897e-06L803.141 32L835.405 32ZM782.405 32L818.778 -4.90539e-06L786.514 -6.31567e-06L750.141 32L782.405 32ZM741 21.7989L765.778 -7.22209e-06L741 -8.30516e-06L741 21.7989ZM931 12.7692L931 32L909.141 32L931 12.7692Z" fill="#826BE4"/>
</svg>
