<svg width="442" height="32" viewBox="0 0 442 32" fill="none" xmlns="http://www.w3.org/2000/svg">
<path d="M17.4375 2.25H19.3125L16.6719 17.6406C16.4323 19.1823 15.901 20.5312 15.0781 21.6875C14.2552 22.8438 13.2135 23.7448 11.9531 24.3906C10.6927 25.026 9.27604 25.3333 7.70312 25.3125C6.19271 25.3021 4.90625 24.9688 3.84375 24.3125C2.79167 23.6562 2.02604 22.7552 1.54688 21.6094C1.06771 20.4635 0.927083 19.1458 1.125 17.6562L3.78125 2.25H5.64062L3 17.6719C2.84375 18.8073 2.92188 19.8229 3.23438 20.7188C3.54688 21.6146 4.08333 22.3281 4.84375 22.8594C5.60417 23.3802 6.58333 23.651 7.78125 23.6719C9.01042 23.6823 10.1146 23.4375 11.0938 22.9375C12.0729 22.4271 12.8802 21.7188 13.5156 20.8125C14.1615 19.9062 14.5885 18.8542 14.7969 17.6562L17.4375 2.25ZM24.2656 11.7812L21.9844 25H20.1562L23.0781 8.09375H24.8281L24.2656 11.7812ZM23.25 15.5L22.5156 15.0312C22.724 14.1146 23.0417 13.224 23.4688 12.3594C23.8958 11.4844 24.4271 10.7031 25.0625 10.0156C25.7083 9.31771 26.4479 8.77083 27.2812 8.375C28.125 7.96875 29.0625 7.77083 30.0938 7.78125C31.0208 7.79167 31.7865 7.96354 32.3906 8.29688C33.0052 8.61979 33.4792 9.07292 33.8125 9.65625C34.1458 10.2292 34.3542 10.8906 34.4375 11.6406C34.5312 12.3802 34.5208 13.1667 34.4062 14L32.5469 25H30.7031L32.5938 13.9688C32.7083 13.1562 32.7031 12.4062 32.5781 11.7188C32.4635 11.0208 32.1719 10.4635 31.7031 10.0469C31.2344 9.61979 30.5312 9.40625 29.5938 9.40625C28.7604 9.39583 27.9948 9.56771 27.2969 9.92188C26.599 10.2656 25.974 10.7344 25.4219 11.3281C24.8802 11.9115 24.4219 12.5677 24.0469 13.2969C23.6823 14.0156 23.4167 14.75 23.25 15.5ZM42.1875 8.09375L39.2656 25H37.4375L40.3594 8.09375H42.1875ZM40.8906 3.21875C40.901 2.86458 41.0312 2.5625 41.2812 2.3125C41.5312 2.0625 41.8333 1.9375 42.1875 1.9375C42.5521 1.92708 42.849 2.04688 43.0781 2.29688C43.3177 2.54688 43.4219 2.84896 43.3906 3.20312C43.3802 3.54688 43.2448 3.84375 42.9844 4.09375C42.724 4.33333 42.4219 4.45312 42.0781 4.45312C41.724 4.46354 41.4323 4.34896 41.2031 4.10938C40.974 3.86979 40.8698 3.57292 40.8906 3.21875ZM49.4531 23.125L57.0469 8.10938H58.9844L50.2188 25H48.8281L49.4531 23.125ZM47.0312 8.07812L50.0312 23.3125V25H48.75L45.2031 8.07812H47.0312ZM65.5156 25.3125C64.3698 25.3021 63.3802 25.0625 62.5469 24.5938C61.7135 24.125 61.0365 23.5 60.5156 22.7188C60.0052 21.9271 59.6458 21.0417 59.4375 20.0625C59.2396 19.0833 59.1979 18.0781 59.3125 17.0469L59.4062 16.3594C59.5417 15.3177 59.8281 14.2865 60.2656 13.2656C60.7031 12.2448 61.2708 11.3229 61.9688 10.5C62.6771 9.66667 63.5052 9.00521 64.4531 8.51562C65.401 8.01562 66.4531 7.77083 67.6094 7.78125C68.7031 7.79167 69.6198 8.02083 70.3594 8.46875C71.1094 8.90625 71.7031 9.49479 72.1406 10.2344C72.5781 10.974 72.8646 11.8021 73 12.7188C73.1458 13.6354 73.1615 14.5729 73.0469 15.5312L72.8906 16.6719H60.4531L60.6875 15.0781H71.25L71.2969 14.8594C71.4323 13.974 71.3854 13.1146 71.1562 12.2812C70.9375 11.4479 70.5312 10.7604 69.9375 10.2188C69.3438 9.67708 68.5469 9.40104 67.5469 9.39062C66.6094 9.36979 65.776 9.56771 65.0469 9.98438C64.3177 10.3906 63.6875 10.9427 63.1562 11.6406C62.6354 12.3281 62.2135 13.0885 61.8906 13.9219C61.5677 14.7448 61.3438 15.5573 61.2188 16.3594L61.1406 17.0312C61.0365 17.8125 61.0417 18.5938 61.1562 19.375C61.2812 20.1562 61.5208 20.875 61.875 21.5312C62.2396 22.1771 62.7292 22.7031 63.3438 23.1094C63.9688 23.5052 64.7292 23.7083 65.625 23.7188C66.625 23.7396 67.526 23.5417 68.3281 23.125C69.1406 22.6979 69.8854 22.1354 70.5625 21.4375L71.6562 22.3438C71.1562 22.9896 70.5833 23.5365 69.9375 23.9844C69.3021 24.4323 68.6094 24.7656 67.8594 24.9844C67.1094 25.2031 66.3281 25.3125 65.5156 25.3125ZM79.2188 10.9531L76.7969 25H74.9688L77.8906 8.09375H79.6719L79.2188 10.9531ZM85.4844 7.96875L85.25 9.67188C85.0625 9.64062 84.8698 9.61458 84.6719 9.59375C84.474 9.57292 84.276 9.5625 84.0781 9.5625C83.2344 9.55208 82.4844 9.70833 81.8281 10.0312C81.1823 10.3542 80.6146 10.7917 80.125 11.3438C79.6458 11.8958 79.2448 12.5208 78.9219 13.2188C78.599 13.9062 78.349 14.6146 78.1719 15.3438L77.4375 15.6094C77.5938 14.7031 77.8281 13.7865 78.1406 12.8594C78.4635 11.9323 78.8906 11.0833 79.4219 10.3125C79.9635 9.53125 80.625 8.90625 81.4062 8.4375C82.1979 7.96875 83.1354 7.74479 84.2188 7.76562C84.4375 7.76562 84.651 7.78646 84.8594 7.82812C85.0677 7.85938 85.276 7.90625 85.4844 7.96875ZM96.0781 20.6406C96.2031 19.8906 96.0729 19.2865 95.6875 18.8281C95.3021 18.3594 94.7969 18 94.1719 17.75C93.5469 17.4896 92.9375 17.2865 92.3438 17.1406C91.7188 16.9844 91.0885 16.7969 90.4531 16.5781C89.8281 16.349 89.2604 16.0625 88.75 15.7188C88.2396 15.3646 87.8438 14.9219 87.5625 14.3906C87.2812 13.8594 87.1771 13.2083 87.25 12.4375C87.3229 11.6562 87.5573 10.974 87.9531 10.3906C88.3594 9.80729 88.8646 9.32292 89.4688 8.9375C90.0833 8.54167 90.7448 8.25 91.4531 8.0625C92.1719 7.875 92.8854 7.78125 93.5938 7.78125C94.625 7.79167 95.5625 7.98958 96.4062 8.375C97.2604 8.76042 97.9271 9.32812 98.4062 10.0781C98.8958 10.8177 99.1042 11.7396 99.0312 12.8438L97.2188 12.8281C97.2812 12.0885 97.1458 11.4688 96.8125 10.9688C96.4896 10.4583 96.0365 10.0729 95.4531 9.8125C94.8802 9.54167 94.2448 9.40104 93.5469 9.39062C92.901 9.39062 92.2552 9.49479 91.6094 9.70312C90.974 9.91146 90.4219 10.2344 89.9531 10.6719C89.4844 11.1094 89.1927 11.6771 89.0781 12.375C88.9844 12.9271 89.0417 13.3906 89.25 13.7656C89.4688 14.1302 89.776 14.4271 90.1719 14.6562C90.5781 14.8854 91.0156 15.0729 91.4844 15.2188C91.9531 15.3646 92.3958 15.4948 92.8125 15.6094C93.6667 15.8385 94.5052 16.1354 95.3281 16.5C96.151 16.8646 96.8073 17.3698 97.2969 18.0156C97.7969 18.651 97.9948 19.4896 97.8906 20.5312C97.8177 21.3646 97.5729 22.0833 97.1562 22.6875C96.7396 23.2917 96.2135 23.7917 95.5781 24.1875C94.9427 24.5729 94.25 24.8542 93.5 25.0312C92.75 25.2188 92.0052 25.3125 91.2656 25.3125C90.2448 25.3021 89.276 25.1094 88.3594 24.7344C87.4531 24.3594 86.724 23.7969 86.1719 23.0469C85.6198 22.2969 85.3802 21.3594 85.4531 20.2344L87.2812 20.25C87.2604 21.0417 87.4323 21.6927 87.7969 22.2031C88.1615 22.7135 88.651 23.0885 89.2656 23.3281C89.8906 23.5677 90.5677 23.6927 91.2969 23.7031C91.9531 23.7031 92.625 23.599 93.3125 23.3906C94 23.1823 94.599 22.8542 95.1094 22.4062C95.6302 21.9583 95.9531 21.3698 96.0781 20.6406ZM106.094 8.09375L103.172 25H101.344L104.266 8.09375H106.094ZM104.797 3.21875C104.807 2.86458 104.938 2.5625 105.188 2.3125C105.438 2.0625 105.74 1.9375 106.094 1.9375C106.458 1.92708 106.755 2.04688 106.984 2.29688C107.224 2.54688 107.328 2.84896 107.297 3.20312C107.286 3.54688 107.151 3.84375 106.891 4.09375C106.63 4.33333 106.328 4.45312 105.984 4.45312C105.63 4.46354 105.339 4.34896 105.109 4.10938C104.88 3.86979 104.776 3.57292 104.797 3.21875ZM117.234 8.09375L116.984 9.625H108.734L109 8.09375H117.234ZM112.766 3.75H114.594L111.656 20.9062C111.594 21.3542 111.578 21.7865 111.609 22.2031C111.651 22.6198 111.792 22.9635 112.031 23.2344C112.271 23.4948 112.661 23.6302 113.203 23.6406C113.464 23.6406 113.719 23.625 113.969 23.5938C114.229 23.5521 114.484 23.5156 114.734 23.4844L114.656 25.0781C114.344 25.1615 114.031 25.2188 113.719 25.25C113.406 25.2917 113.089 25.3073 112.766 25.2969C111.891 25.2865 111.229 25.0729 110.781 24.6562C110.333 24.2396 110.042 23.6979 109.906 23.0312C109.771 22.3542 109.755 21.6354 109.859 20.875L112.766 3.75ZM123.234 23.2344L130.969 8.10938H133L122.703 27.7188C122.432 28.25 122.13 28.7604 121.797 29.25C121.464 29.75 121.089 30.1927 120.672 30.5781C120.255 30.974 119.781 31.2812 119.25 31.5C118.729 31.7292 118.141 31.849 117.484 31.8594C117.245 31.849 117 31.8229 116.75 31.7812C116.5 31.75 116.26 31.7031 116.031 31.6406L116.156 30.0625C116.312 30.0833 116.469 30.1042 116.625 30.125C116.771 30.1562 116.917 30.1719 117.062 30.1719C117.76 30.1927 118.365 30.0625 118.875 29.7812C119.385 29.5104 119.828 29.1406 120.203 28.6719C120.589 28.2031 120.927 27.6823 121.219 27.1094L123.234 23.2344ZM121.078 8.07812L123.828 22.6875L123.984 24.6094L122.578 25.3594L119.156 8.07812H121.078ZM141.031 16.8594L141.109 16.3438C141.266 15.2396 141.568 14.1719 142.016 13.1406C142.464 12.1094 143.047 11.1927 143.766 10.3906C144.495 9.57812 145.349 8.9375 146.328 8.46875C147.307 8 148.396 7.77083 149.594 7.78125C150.781 7.79167 151.792 8.04167 152.625 8.53125C153.458 9.01042 154.125 9.65625 154.625 10.4688C155.135 11.2812 155.484 12.1927 155.672 13.2031C155.859 14.2031 155.891 15.2292 155.766 16.2812L155.703 16.7969C155.547 17.901 155.24 18.9635 154.781 19.9844C154.333 21.0052 153.745 21.9219 153.016 22.7344C152.297 23.5365 151.448 24.1719 150.469 24.6406C149.49 25.099 148.401 25.3229 147.203 25.3125C146.026 25.3021 145.016 25.0573 144.172 24.5781C143.339 24.0885 142.672 23.4427 142.172 22.6406C141.672 21.8281 141.328 20.9219 141.141 19.9219C140.953 18.9219 140.917 17.901 141.031 16.8594ZM142.938 16.3438L142.875 16.8594C142.771 17.6406 142.766 18.4323 142.859 19.2344C142.953 20.0365 143.167 20.776 143.5 21.4531C143.844 22.1198 144.323 22.6615 144.938 23.0781C145.552 23.4948 146.323 23.7083 147.25 23.7188C148.198 23.7292 149.052 23.5365 149.812 23.1406C150.573 22.7448 151.229 22.2135 151.781 21.5469C152.344 20.8698 152.797 20.1198 153.141 19.2969C153.484 18.4635 153.724 17.6302 153.859 16.7969L153.922 16.2812C154.026 15.5104 154.026 14.724 153.922 13.9219C153.828 13.1094 153.615 12.3646 153.281 11.6875C152.948 11.0104 152.474 10.4635 151.859 10.0469C151.245 9.61979 150.474 9.40104 149.547 9.39062C148.599 9.36979 147.745 9.5625 146.984 9.96875C146.224 10.3646 145.568 10.901 145.016 11.5781C144.464 12.2552 144.01 13.0104 143.656 13.8438C143.312 14.6667 143.073 15.5 142.938 16.3438ZM161.141 25H159.312L162.562 6C162.719 4.97917 163.031 4.06771 163.5 3.26562C163.979 2.46354 164.609 1.82812 165.391 1.35938C166.172 0.890625 167.104 0.65625 168.188 0.65625C168.531 0.65625 168.87 0.682292 169.203 0.734375C169.536 0.776042 169.87 0.838542 170.203 0.921875L169.906 2.5C169.646 2.4375 169.38 2.39062 169.109 2.35938C168.839 2.31771 168.568 2.29688 168.297 2.29688C167.557 2.29688 166.917 2.46354 166.375 2.79688C165.844 3.13021 165.411 3.57812 165.078 4.14062C164.755 4.69271 164.531 5.3125 164.406 6L161.141 25ZM167.969 8.09375L167.703 9.625H159.25L159.516 8.09375H167.969ZM191.359 17.9219L193.219 17.9062C192.865 19.4062 192.266 20.7188 191.422 21.8438C190.578 22.9583 189.526 23.8229 188.266 24.4375C187.016 25.0417 185.604 25.3333 184.031 25.3125C182.615 25.3021 181.438 24.9896 180.5 24.375C179.562 23.7604 178.833 22.9583 178.312 21.9688C177.802 20.9688 177.469 19.8698 177.312 18.6719C177.167 17.4635 177.188 16.2552 177.375 15.0469L177.828 12.2031C178.036 10.901 178.406 9.63542 178.938 8.40625C179.469 7.17708 180.156 6.07812 181 5.10938C181.844 4.13021 182.839 3.35417 183.984 2.78125C185.141 2.20833 186.443 1.92708 187.891 1.9375C189.401 1.94792 190.672 2.27083 191.703 2.90625C192.734 3.53125 193.505 4.40104 194.016 5.51562C194.536 6.61979 194.792 7.90625 194.781 9.375H192.922C192.932 8.23958 192.76 7.23958 192.406 6.375C192.062 5.51042 191.516 4.83333 190.766 4.34375C190.016 3.85417 189.042 3.59896 187.844 3.57812C186.646 3.56771 185.583 3.80729 184.656 4.29688C183.729 4.78646 182.927 5.44792 182.25 6.28125C181.583 7.11458 181.036 8.04688 180.609 9.07812C180.193 10.099 179.896 11.1302 179.719 12.1719L179.234 15.0625C179.099 15.9896 179.057 16.9531 179.109 17.9531C179.172 18.9427 179.37 19.8698 179.703 20.7344C180.047 21.5885 180.573 22.2865 181.281 22.8281C181.99 23.3698 182.927 23.651 184.094 23.6719C185.375 23.6927 186.495 23.4688 187.453 23C188.411 22.5312 189.214 21.8646 189.859 21C190.505 20.125 191.005 19.099 191.359 17.9219ZM206.688 21.9688L208.141 13.2344C208.255 12.4323 208.182 11.7448 207.922 11.1719C207.672 10.5885 207.266 10.1458 206.703 9.84375C206.151 9.53125 205.469 9.36979 204.656 9.35938C203.938 9.34896 203.229 9.47396 202.531 9.73438C201.833 9.99479 201.224 10.375 200.703 10.875C200.193 11.375 199.854 12 199.688 12.75L197.859 12.7344C197.974 11.9323 198.255 11.224 198.703 10.6094C199.151 9.98438 199.703 9.46354 200.359 9.04688C201.026 8.61979 201.745 8.30208 202.516 8.09375C203.286 7.875 204.047 7.77083 204.797 7.78125C205.911 7.78125 206.88 8.00521 207.703 8.45312C208.526 8.89062 209.141 9.52083 209.547 10.3438C209.964 11.1562 210.099 12.1354 209.953 13.2812L208.578 21.4531C208.484 22.0052 208.422 22.5677 208.391 23.1406C208.359 23.7031 208.401 24.2552 208.516 24.7969L208.5 25H206.594C206.521 24.5 206.495 23.9948 206.516 23.4844C206.547 22.974 206.604 22.4688 206.688 21.9688ZM208.266 15.1562L208.062 16.5938H204.609C203.964 16.5938 203.281 16.651 202.562 16.7656C201.844 16.8802 201.156 17.0781 200.5 17.3594C199.844 17.6406 199.286 18.0312 198.828 18.5312C198.37 19.0208 198.078 19.6458 197.953 20.4062C197.849 21.0625 197.922 21.6354 198.172 22.125C198.432 22.6042 198.812 22.9792 199.312 23.25C199.812 23.5104 200.375 23.6458 201 23.6562C201.917 23.6667 202.786 23.5 203.609 23.1562C204.432 22.8021 205.167 22.3125 205.812 21.6875C206.458 21.0625 206.964 20.3333 207.328 19.5L207.969 20.5938C207.688 21.3021 207.292 21.9531 206.781 22.5469C206.281 23.1302 205.708 23.6302 205.062 24.0469C204.417 24.4531 203.724 24.7708 202.984 25C202.245 25.2188 201.495 25.3281 200.734 25.3281C199.807 25.3073 198.974 25.1042 198.234 24.7188C197.505 24.3333 196.938 23.7865 196.531 23.0781C196.125 22.3698 195.974 21.5365 196.078 20.5781C196.193 19.5573 196.516 18.7031 197.047 18.0156C197.589 17.3177 198.26 16.7604 199.062 16.3438C199.865 15.9271 200.729 15.625 201.656 15.4375C202.583 15.25 203.484 15.1562 204.359 15.1562H208.266ZM219 1L214.859 25H213.031L217.172 1H219ZM224.75 8.09375L221.828 25H220L222.922 8.09375H224.75ZM223.453 3.21875C223.464 2.86458 223.594 2.5625 223.844 2.3125C224.094 2.0625 224.396 1.9375 224.75 1.9375C225.115 1.92708 225.411 2.04688 225.641 2.29688C225.88 2.54688 225.984 2.84896 225.953 3.20312C225.943 3.54688 225.807 3.84375 225.547 4.09375C225.286 4.33333 224.984 4.45312 224.641 4.45312C224.286 4.46354 223.995 4.34896 223.766 4.10938C223.536 3.86979 223.432 3.57292 223.453 3.21875ZM229.891 25H228.062L231.312 6C231.469 4.97917 231.781 4.06771 232.25 3.26562C232.729 2.46354 233.359 1.82812 234.141 1.35938C234.922 0.890625 235.854 0.65625 236.938 0.65625C237.281 0.65625 237.62 0.682292 237.953 0.734375C238.286 0.776042 238.62 0.838542 238.953 0.921875L238.656 2.5C238.396 2.4375 238.13 2.39062 237.859 2.35938C237.589 2.31771 237.318 2.29688 237.047 2.29688C236.307 2.29688 235.667 2.46354 235.125 2.79688C234.594 3.13021 234.161 3.57812 233.828 4.14062C233.505 4.69271 233.281 5.3125 233.156 6L229.891 25ZM236.719 8.09375L236.453 9.625H228L228.266 8.09375H236.719ZM237.469 16.8594L237.547 16.3438C237.703 15.2396 238.005 14.1719 238.453 13.1406C238.901 12.1094 239.484 11.1927 240.203 10.3906C240.932 9.57812 241.786 8.9375 242.766 8.46875C243.745 8 244.833 7.77083 246.031 7.78125C247.219 7.79167 248.229 8.04167 249.062 8.53125C249.896 9.01042 250.562 9.65625 251.062 10.4688C251.573 11.2812 251.922 12.1927 252.109 13.2031C252.297 14.2031 252.328 15.2292 252.203 16.2812L252.141 16.7969C251.984 17.901 251.677 18.9635 251.219 19.9844C250.771 21.0052 250.182 21.9219 249.453 22.7344C248.734 23.5365 247.885 24.1719 246.906 24.6406C245.927 25.099 244.839 25.3229 243.641 25.3125C242.464 25.3021 241.453 25.0573 240.609 24.5781C239.776 24.0885 239.109 23.4427 238.609 22.6406C238.109 21.8281 237.766 20.9219 237.578 19.9219C237.391 18.9219 237.354 17.901 237.469 16.8594ZM239.375 16.3438L239.312 16.8594C239.208 17.6406 239.203 18.4323 239.297 19.2344C239.391 20.0365 239.604 20.776 239.938 21.4531C240.281 22.1198 240.76 22.6615 241.375 23.0781C241.99 23.4948 242.76 23.7083 243.688 23.7188C244.635 23.7292 245.49 23.5365 246.25 23.1406C247.01 22.7448 247.667 22.2135 248.219 21.5469C248.781 20.8698 249.234 20.1198 249.578 19.2969C249.922 18.4635 250.161 17.6302 250.297 16.7969L250.359 16.2812C250.464 15.5104 250.464 14.724 250.359 13.9219C250.266 13.1094 250.052 12.3646 249.719 11.6875C249.385 11.0104 248.911 10.4635 248.297 10.0469C247.682 9.61979 246.911 9.40104 245.984 9.39062C245.036 9.36979 244.182 9.5625 243.422 9.96875C242.661 10.3646 242.005 10.901 241.453 11.5781C240.901 12.2552 240.448 13.0104 240.094 13.8438C239.75 14.6667 239.51 15.5 239.375 16.3438ZM258.688 10.9531L256.266 25H254.438L257.359 8.09375H259.141L258.688 10.9531ZM264.953 7.96875L264.719 9.67188C264.531 9.64062 264.339 9.61458 264.141 9.59375C263.943 9.57292 263.745 9.5625 263.547 9.5625C262.703 9.55208 261.953 9.70833 261.297 10.0312C260.651 10.3542 260.083 10.7917 259.594 11.3438C259.115 11.8958 258.714 12.5208 258.391 13.2188C258.068 13.9062 257.818 14.6146 257.641 15.3438L256.906 15.6094C257.062 14.7031 257.297 13.7865 257.609 12.8594C257.932 11.9323 258.359 11.0833 258.891 10.3125C259.432 9.53125 260.094 8.90625 260.875 8.4375C261.667 7.96875 262.604 7.74479 263.688 7.76562C263.906 7.76562 264.12 7.78646 264.328 7.82812C264.536 7.85938 264.745 7.90625 264.953 7.96875ZM268.984 11.7812L266.703 25H264.875L267.797 8.09375H269.547L268.984 11.7812ZM267.969 15.5L267.234 15.0312C267.443 14.1146 267.76 13.224 268.188 12.3594C268.615 11.4844 269.146 10.7031 269.781 10.0156C270.427 9.31771 271.167 8.77083 272 8.375C272.844 7.96875 273.781 7.77083 274.812 7.78125C275.74 7.79167 276.505 7.96354 277.109 8.29688C277.724 8.61979 278.198 9.07292 278.531 9.65625C278.865 10.2292 279.073 10.8906 279.156 11.6406C279.25 12.3802 279.24 13.1667 279.125 14L277.266 25H275.422L277.312 13.9688C277.427 13.1562 277.422 12.4062 277.297 11.7188C277.182 11.0208 276.891 10.4635 276.422 10.0469C275.953 9.61979 275.25 9.40625 274.312 9.40625C273.479 9.39583 272.714 9.56771 272.016 9.92188C271.318 10.2656 270.693 10.7344 270.141 11.3281C269.599 11.9115 269.141 12.5677 268.766 13.2969C268.401 14.0156 268.135 14.75 267.969 15.5ZM286.906 8.09375L283.984 25H282.156L285.078 8.09375H286.906ZM285.609 3.21875C285.62 2.86458 285.75 2.5625 286 2.3125C286.25 2.0625 286.552 1.9375 286.906 1.9375C287.271 1.92708 287.568 2.04688 287.797 2.29688C288.036 2.54688 288.141 2.84896 288.109 3.20312C288.099 3.54688 287.964 3.84375 287.703 4.09375C287.443 4.33333 287.141 4.45312 286.797 4.45312C286.443 4.46354 286.151 4.34896 285.922 4.10938C285.693 3.86979 285.589 3.57292 285.609 3.21875ZM299.438 21.9688L300.891 13.2344C301.005 12.4323 300.932 11.7448 300.672 11.1719C300.422 10.5885 300.016 10.1458 299.453 9.84375C298.901 9.53125 298.219 9.36979 297.406 9.35938C296.688 9.34896 295.979 9.47396 295.281 9.73438C294.583 9.99479 293.974 10.375 293.453 10.875C292.943 11.375 292.604 12 292.438 12.75L290.609 12.7344C290.724 11.9323 291.005 11.224 291.453 10.6094C291.901 9.98438 292.453 9.46354 293.109 9.04688C293.776 8.61979 294.495 8.30208 295.266 8.09375C296.036 7.875 296.797 7.77083 297.547 7.78125C298.661 7.78125 299.63 8.00521 300.453 8.45312C301.276 8.89062 301.891 9.52083 302.297 10.3438C302.714 11.1562 302.849 12.1354 302.703 13.2812L301.328 21.4531C301.234 22.0052 301.172 22.5677 301.141 23.1406C301.109 23.7031 301.151 24.2552 301.266 24.7969L301.25 25H299.344C299.271 24.5 299.245 23.9948 299.266 23.4844C299.297 22.974 299.354 22.4688 299.438 21.9688ZM301.016 15.1562L300.812 16.5938H297.359C296.714 16.5938 296.031 16.651 295.312 16.7656C294.594 16.8802 293.906 17.0781 293.25 17.3594C292.594 17.6406 292.036 18.0312 291.578 18.5312C291.12 19.0208 290.828 19.6458 290.703 20.4062C290.599 21.0625 290.672 21.6354 290.922 22.125C291.182 22.6042 291.562 22.9792 292.062 23.25C292.562 23.5104 293.125 23.6458 293.75 23.6562C294.667 23.6667 295.536 23.5 296.359 23.1562C297.182 22.8021 297.917 22.3125 298.562 21.6875C299.208 21.0625 299.714 20.3333 300.078 19.5L300.719 20.5938C300.438 21.3021 300.042 21.9531 299.531 22.5469C299.031 23.1302 298.458 23.6302 297.812 24.0469C297.167 24.4531 296.474 24.7708 295.734 25C294.995 25.2188 294.245 25.3281 293.484 25.3281C292.557 25.3073 291.724 25.1042 290.984 24.7188C290.255 24.3333 289.688 23.7865 289.281 23.0781C288.875 22.3698 288.724 21.5365 288.828 20.5781C288.943 19.5573 289.266 18.7031 289.797 18.0156C290.339 17.3177 291.01 16.7604 291.812 16.3438C292.615 15.9271 293.479 15.625 294.406 15.4375C295.333 15.25 296.234 15.1562 297.109 15.1562H301.016ZM307.828 22.0469L307.469 24.2344C307.302 25.2344 306.964 26.1615 306.453 27.0156C305.953 27.8698 305.318 28.6198 304.547 29.2656L303.516 28.4219C303.87 28.0052 304.188 27.5781 304.469 27.1406C304.75 26.7135 304.99 26.2604 305.188 25.7812C305.396 25.3125 305.552 24.8125 305.656 24.2812L306.031 22.0469H307.828ZM323.578 2.25H330.625C331.969 2.28125 333.156 2.55208 334.188 3.0625C335.229 3.57292 336.016 4.3125 336.547 5.28125C337.089 6.25 337.271 7.44792 337.094 8.875C336.948 10.0312 336.589 11.0312 336.016 11.875C335.443 12.7083 334.719 13.4062 333.844 13.9688C332.979 14.5208 332.021 14.9531 330.969 15.2656L330.281 15.5156H322.484L322.734 13.875L329.031 13.8906C330.042 13.8802 330.984 13.6719 331.859 13.2656C332.734 12.8594 333.469 12.2865 334.062 11.5469C334.656 10.7969 335.036 9.90625 335.203 8.875C335.37 7.8125 335.271 6.91667 334.906 6.1875C334.552 5.45833 333.995 4.90104 333.234 4.51562C332.484 4.13021 331.604 3.92708 330.594 3.90625H325.172L321.516 25H319.641L323.578 2.25ZM333.312 25L329.344 14.8281L331.25 14.7969L335.312 24.7812L335.297 25H333.312ZM343.938 8.09375L341.016 25H339.188L342.109 8.09375H343.938ZM342.641 3.21875C342.651 2.86458 342.781 2.5625 343.031 2.3125C343.281 2.0625 343.583 1.9375 343.938 1.9375C344.302 1.92708 344.599 2.04688 344.828 2.29688C345.068 2.54688 345.172 2.84896 345.141 3.20312C345.13 3.54688 344.995 3.84375 344.734 4.09375C344.474 4.33333 344.172 4.45312 343.828 4.45312C343.474 4.46354 343.182 4.34896 342.953 4.10938C342.724 3.86979 342.62 3.57292 342.641 3.21875ZM351.203 23.125L358.797 8.10938H360.734L351.969 25H350.578L351.203 23.125ZM348.781 8.07812L351.781 23.3125V25H350.5L346.953 8.07812H348.781ZM367.266 25.3125C366.12 25.3021 365.13 25.0625 364.297 24.5938C363.464 24.125 362.786 23.5 362.266 22.7188C361.755 21.9271 361.396 21.0417 361.188 20.0625C360.99 19.0833 360.948 18.0781 361.062 17.0469L361.156 16.3594C361.292 15.3177 361.578 14.2865 362.016 13.2656C362.453 12.2448 363.021 11.3229 363.719 10.5C364.427 9.66667 365.255 9.00521 366.203 8.51562C367.151 8.01562 368.203 7.77083 369.359 7.78125C370.453 7.79167 371.37 8.02083 372.109 8.46875C372.859 8.90625 373.453 9.49479 373.891 10.2344C374.328 10.974 374.615 11.8021 374.75 12.7188C374.896 13.6354 374.911 14.5729 374.797 15.5312L374.641 16.6719H362.203L362.438 15.0781H373L373.047 14.8594C373.182 13.974 373.135 13.1146 372.906 12.2812C372.688 11.4479 372.281 10.7604 371.688 10.2188C371.094 9.67708 370.297 9.40104 369.297 9.39062C368.359 9.36979 367.526 9.56771 366.797 9.98438C366.068 10.3906 365.438 10.9427 364.906 11.6406C364.385 12.3281 363.964 13.0885 363.641 13.9219C363.318 14.7448 363.094 15.5573 362.969 16.3594L362.891 17.0312C362.786 17.8125 362.792 18.5938 362.906 19.375C363.031 20.1562 363.271 20.875 363.625 21.5312C363.99 22.1771 364.479 22.7031 365.094 23.1094C365.719 23.5052 366.479 23.7083 367.375 23.7188C368.375 23.7396 369.276 23.5417 370.078 23.125C370.891 22.6979 371.635 22.1354 372.312 21.4375L373.406 22.3438C372.906 22.9896 372.333 23.5365 371.688 23.9844C371.052 24.4323 370.359 24.7656 369.609 24.9844C368.859 25.2031 368.078 25.3125 367.266 25.3125ZM380.969 10.9531L378.547 25H376.719L379.641 8.09375H381.422L380.969 10.9531ZM387.234 7.96875L387 9.67188C386.812 9.64062 386.62 9.61458 386.422 9.59375C386.224 9.57292 386.026 9.5625 385.828 9.5625C384.984 9.55208 384.234 9.70833 383.578 10.0312C382.932 10.3542 382.365 10.7917 381.875 11.3438C381.396 11.8958 380.995 12.5208 380.672 13.2188C380.349 13.9062 380.099 14.6146 379.922 15.3438L379.188 15.6094C379.344 14.7031 379.578 13.7865 379.891 12.8594C380.214 11.9323 380.641 11.0833 381.172 10.3125C381.714 9.53125 382.375 8.90625 383.156 8.4375C383.948 7.96875 384.885 7.74479 385.969 7.76562C386.188 7.76562 386.401 7.78646 386.609 7.82812C386.818 7.85938 387.026 7.90625 387.234 7.96875ZM397.828 20.6406C397.953 19.8906 397.823 19.2865 397.438 18.8281C397.052 18.3594 396.547 18 395.922 17.75C395.297 17.4896 394.688 17.2865 394.094 17.1406C393.469 16.9844 392.839 16.7969 392.203 16.5781C391.578 16.349 391.01 16.0625 390.5 15.7188C389.99 15.3646 389.594 14.9219 389.312 14.3906C389.031 13.8594 388.927 13.2083 389 12.4375C389.073 11.6562 389.307 10.974 389.703 10.3906C390.109 9.80729 390.615 9.32292 391.219 8.9375C391.833 8.54167 392.495 8.25 393.203 8.0625C393.922 7.875 394.635 7.78125 395.344 7.78125C396.375 7.79167 397.312 7.98958 398.156 8.375C399.01 8.76042 399.677 9.32812 400.156 10.0781C400.646 10.8177 400.854 11.7396 400.781 12.8438L398.969 12.8281C399.031 12.0885 398.896 11.4688 398.562 10.9688C398.24 10.4583 397.786 10.0729 397.203 9.8125C396.63 9.54167 395.995 9.40104 395.297 9.39062C394.651 9.39062 394.005 9.49479 393.359 9.70312C392.724 9.91146 392.172 10.2344 391.703 10.6719C391.234 11.1094 390.943 11.6771 390.828 12.375C390.734 12.9271 390.792 13.3906 391 13.7656C391.219 14.1302 391.526 14.4271 391.922 14.6562C392.328 14.8854 392.766 15.0729 393.234 15.2188C393.703 15.3646 394.146 15.4948 394.562 15.6094C395.417 15.8385 396.255 16.1354 397.078 16.5C397.901 16.8646 398.557 17.3698 399.047 18.0156C399.547 18.651 399.745 19.4896 399.641 20.5312C399.568 21.3646 399.323 22.0833 398.906 22.6875C398.49 23.2917 397.964 23.7917 397.328 24.1875C396.693 24.5729 396 24.8542 395.25 25.0312C394.5 25.2188 393.755 25.3125 393.016 25.3125C391.995 25.3021 391.026 25.1094 390.109 24.7344C389.203 24.3594 388.474 23.7969 387.922 23.0469C387.37 22.2969 387.13 21.3594 387.203 20.2344L389.031 20.25C389.01 21.0417 389.182 21.6927 389.547 22.2031C389.911 22.7135 390.401 23.0885 391.016 23.3281C391.641 23.5677 392.318 23.6927 393.047 23.7031C393.703 23.7031 394.375 23.599 395.062 23.3906C395.75 23.1823 396.349 22.8542 396.859 22.4062C397.38 21.9583 397.703 21.3698 397.828 20.6406ZM407.844 8.09375L404.922 25H403.094L406.016 8.09375H407.844ZM406.547 3.21875C406.557 2.86458 406.688 2.5625 406.938 2.3125C407.188 2.0625 407.49 1.9375 407.844 1.9375C408.208 1.92708 408.505 2.04688 408.734 2.29688C408.974 2.54688 409.078 2.84896 409.047 3.20312C409.036 3.54688 408.901 3.84375 408.641 4.09375C408.38 4.33333 408.078 4.45312 407.734 4.45312C407.38 4.46354 407.089 4.34896 406.859 4.10938C406.63 3.86979 406.526 3.57292 406.547 3.21875ZM421.078 21.6406L424.656 1H426.484L422.328 25H420.625L421.078 21.6406ZM410.547 16.7812L410.594 16.4531C410.75 15.4323 411.016 14.4115 411.391 13.3906C411.766 12.3594 412.266 11.4167 412.891 10.5625C413.516 9.70833 414.271 9.02604 415.156 8.51562C416.052 8.00521 417.089 7.76042 418.266 7.78125C419.193 7.79167 420.005 7.98958 420.703 8.375C421.401 8.75 421.979 9.26042 422.438 9.90625C422.906 10.5521 423.245 11.2812 423.453 12.0938C423.672 12.8958 423.755 13.7292 423.703 14.5938L423.031 18.7656C422.844 19.6615 422.526 20.5052 422.078 21.2969C421.63 22.0885 421.078 22.7917 420.422 23.4062C419.776 24.0104 419.036 24.4844 418.203 24.8281C417.38 25.1719 416.495 25.3333 415.547 25.3125C414.411 25.3021 413.484 25.026 412.766 24.4844C412.057 23.9427 411.521 23.2448 411.156 22.3906C410.792 21.5365 410.568 20.6146 410.484 19.625C410.411 18.6354 410.432 17.6875 410.547 16.7812ZM412.469 16.4375L412.422 16.7656C412.318 17.474 412.271 18.224 412.281 19.0156C412.292 19.8073 412.406 20.5573 412.625 21.2656C412.854 21.9635 413.234 22.5365 413.766 22.9844C414.297 23.4323 415.021 23.6667 415.938 23.6875C416.844 23.6979 417.708 23.5104 418.531 23.125C419.354 22.7292 420.073 22.1875 420.688 21.5C421.312 20.8125 421.75 20.0365 422 19.1719L422.844 14.2969C422.885 13.6406 422.807 13.0208 422.609 12.4375C422.422 11.8542 422.135 11.3385 421.75 10.8906C421.365 10.4427 420.896 10.0885 420.344 9.82812C419.802 9.55729 419.198 9.42188 418.531 9.42188C417.583 9.40104 416.755 9.60417 416.047 10.0312C415.349 10.4479 414.755 11.0052 414.266 11.7031C413.776 12.3906 413.385 13.151 413.094 13.9844C412.802 14.8073 412.594 15.625 412.469 16.4375ZM433.703 25.3125C432.557 25.3021 431.568 25.0625 430.734 24.5938C429.901 24.125 429.224 23.5 428.703 22.7188C428.193 21.9271 427.833 21.0417 427.625 20.0625C427.427 19.0833 427.385 18.0781 427.5 17.0469L427.594 16.3594C427.729 15.3177 428.016 14.2865 428.453 13.2656C428.891 12.2448 429.458 11.3229 430.156 10.5C430.865 9.66667 431.693 9.00521 432.641 8.51562C433.589 8.01562 434.641 7.77083 435.797 7.78125C436.891 7.79167 437.807 8.02083 438.547 8.46875C439.297 8.90625 439.891 9.49479 440.328 10.2344C440.766 10.974 441.052 11.8021 441.188 12.7188C441.333 13.6354 441.349 14.5729 441.234 15.5312L441.078 16.6719H428.641L428.875 15.0781H439.438L439.484 14.8594C439.62 13.974 439.573 13.1146 439.344 12.2812C439.125 11.4479 438.719 10.7604 438.125 10.2188C437.531 9.67708 436.734 9.40104 435.734 9.39062C434.797 9.36979 433.964 9.56771 433.234 9.98438C432.505 10.3906 431.875 10.9427 431.344 11.6406C430.823 12.3281 430.401 13.0885 430.078 13.9219C429.755 14.7448 429.531 15.5573 429.406 16.3594L429.328 17.0312C429.224 17.8125 429.229 18.5938 429.344 19.375C429.469 20.1562 429.708 20.875 430.062 21.5312C430.427 22.1771 430.917 22.7031 431.531 23.1094C432.156 23.5052 432.917 23.7083 433.812 23.7188C434.812 23.7396 435.714 23.5417 436.516 23.125C437.328 22.6979 438.073 22.1354 438.75 21.4375L439.844 22.3438C439.344 22.9896 438.771 23.5365 438.125 23.9844C437.49 24.4323 436.797 24.7656 436.047 24.9844C435.297 25.2031 434.516 25.3125 433.703 25.3125Z" fill="white"/>
</svg>
