<svg width="961" height="93" viewBox="0 0 961 93" fill="none" xmlns="http://www.w3.org/2000/svg">
<path d="M46.815 64.12L68.575 1.39999H93.535L59.615 91H34.015L0.0949999 1.39999H25.055L46.815 64.12ZM170.97 91H99.93V1.39999H170.97V19.32H122.97V36.6H160.73V54.52H122.97V73.08H170.97V91ZM233.02 1.39999H258.62L229.82 46.2L259.26 91H233.66L215.74 62.84L197.82 91H172.22L201.66 46.2L172.86 1.39999H198.332L215.74 29.56L233.02 1.39999ZM304.055 1.39999H357.815C366.775 1.39999 373.26 3.448 377.271 7.544C381.367 11.5547 383.415 18.04 383.415 27V38.52C383.415 45.6027 382.22 51.1067 379.831 55.032C377.527 58.9573 373.815 61.56 368.695 62.84L384.695 91H359.735L345.015 64.12H327.095V91H304.055V1.39999ZM360.375 27C360.375 21.88 357.815 19.32 352.695 19.32H327.095V46.2H352.695C357.815 46.2 360.375 43.64 360.375 38.52V27ZM453.78 25.72C453.78 20.6 451.22 18.04 446.1 18.04H424.34C419.22 18.04 416.66 20.6 416.66 25.72V66.68C416.66 71.8 419.22 74.36 424.34 74.36H446.1C451.22 74.36 453.78 71.8 453.78 66.68V25.72ZM476.82 66.68C476.82 75.64 474.772 82.168 470.676 86.264C466.665 90.2747 460.18 92.28 451.22 92.28H419.22C410.26 92.28 403.732 90.2747 399.636 86.264C395.625 82.168 393.62 75.64 393.62 66.68V25.72C393.62 16.76 395.625 10.2747 399.636 6.26399C403.732 2.16799 410.26 0.119995 419.22 0.119995H451.22C460.18 0.119995 466.665 2.16799 470.676 6.26399C474.772 10.2747 476.82 16.76 476.82 25.72V66.68ZM489.68 1.39999H540.88C549.243 1.39999 555.387 3.31999 559.312 7.16C563.237 10.9147 565.2 16.6747 565.2 24.44C565.2 29.56 564.091 33.7413 561.872 36.984C559.653 40.1413 556.923 42.36 553.68 43.64C560.592 45.5173 565.285 50.1253 567.76 57.464C568.613 60.1093 569.04 63.1813 569.04 66.68C569.04 75.0427 567.077 81.1867 563.152 85.112C559.227 89.0373 553.083 91 544.72 91H489.68V1.39999ZM546 62.84C546 57.72 543.44 55.16 538.32 55.16H512.72V73.08H538.32C543.44 73.08 546 70.52 546 65.4V62.84ZM542.16 27C542.16 21.88 539.6 19.32 534.48 19.32H512.72V37.24H534.48C539.6 37.24 542.16 34.68 542.16 29.56V27ZM638.155 25.72C638.155 20.6 635.595 18.04 630.475 18.04H608.715C603.595 18.04 601.035 20.6 601.035 25.72V66.68C601.035 71.8 603.595 74.36 608.715 74.36H630.475C635.595 74.36 638.155 71.8 638.155 66.68V25.72ZM661.195 66.68C661.195 75.64 659.147 82.168 655.051 86.264C651.04 90.2747 644.555 92.28 635.595 92.28H603.595C594.635 92.28 588.107 90.2747 584.011 86.264C580 82.168 577.995 75.64 577.995 66.68V25.72C577.995 16.76 580 10.2747 584.011 6.26399C588.107 2.16799 594.635 0.119995 603.595 0.119995H635.595C644.555 0.119995 651.04 2.16799 655.051 6.26399C659.147 10.2747 661.195 16.76 661.195 25.72V66.68ZM717.575 91H694.535V19.32H667.655V1.39999H744.455V19.32H717.575V91ZM795.67 91H749.59V73.08H761.11V19.32H749.59V1.39999H795.67V19.32H784.15V73.08H795.67V91ZM876.3 89.72C857.271 91.4267 841.484 92.28 828.94 92.28C820.577 92.28 814.433 90.3173 810.508 86.392C806.583 82.4667 804.62 76.3227 804.62 67.96V27C804.62 18.04 806.625 11.5547 810.636 7.544C814.732 3.448 821.26 1.39999 830.22 1.39999H876.3V19.32H835.34C830.22 19.32 827.66 21.88 827.66 27V67.96C827.66 69.9227 828.215 71.5013 829.324 72.696C830.519 73.8053 832.012 74.36 833.804 74.36C835.596 74.36 837.559 74.36 839.692 74.36C841.825 74.2747 844.044 74.1893 846.348 74.104C848.652 74.0187 850.956 73.9333 853.26 73.848C855.649 73.7627 858.679 73.592 862.348 73.336C866.103 73.08 870.753 72.7813 876.3 72.44V89.72ZM883.867 72.44C907.248 73.72 923.078 74.36 931.355 74.36C933.318 74.36 934.854 73.8053 935.963 72.696C937.158 71.5013 937.755 69.9227 937.755 67.96V56.44H908.315C899.355 56.44 892.827 54.4347 888.731 50.424C884.72 46.328 882.715 39.8 882.715 30.84V27C882.715 18.04 884.72 11.5547 888.731 7.544C892.827 3.448 899.355 1.39999 908.315 1.39999H953.243V19.32H913.435C908.315 19.32 905.755 21.88 905.755 27V29.56C905.755 34.68 908.315 37.24 913.435 37.24H936.475C944.838 37.24 950.982 39.2027 954.907 43.128C958.832 47.0533 960.795 53.1973 960.795 61.56V67.96C960.795 76.3227 958.832 82.4667 954.907 86.392C950.982 90.3173 944.838 92.28 936.475 92.28C932.123 92.28 927.515 92.1947 922.651 92.024L910.875 91.512C902.171 91.0853 893.168 90.488 883.867 89.72V72.44Z" fill="white"/>
</svg>
