<?xml version="1.0" encoding="UTF-8"?>
<!-- Generated by Pixelmator Pro 3.5.8 -->
<svg width="164" height="44" viewBox="0 0 164 44" xmlns="http://www.w3.org/2000/svg">
    <g id="Group">
        <path id="Path" fill="#51b6bf" stroke="none" d="M 63 18.300001 C 62.267105 15.928333 60.019207 14.355627 57.540001 14.48 L 57.080002 14.48 C 56.776371 14.529135 56.475861 14.595913 56.18 14.68 C 55.038483 15.020447 54.038353 15.722294 53.330002 16.68 C 52.821449 17.428411 52.480354 18.277735 52.330002 19.17 C 52.294476 19.535807 52.294476 19.904194 52.330002 20.27 L 52.330002 34.220001 C 52.330002 35.299999 52.209999 36.110001 53.060001 36.380001 C 53.287964 36.450802 53.532036 36.450802 53.759998 36.380001 C 54.630001 36.02 54.419998 34.900002 54.419998 33.720001 L 54.419998 24.32 C 55.021591 24.770107 55.698959 25.108791 56.419998 25.32 C 57.485981 25.581696 58.605213 25.526081 59.639999 25.16 C 61.272839 24.579941 62.524525 23.246298 63 21.58 C 63.245956 20.846661 63.321201 20.066837 63.220001 19.300001 C 63.164177 18.963055 63.090744 18.629263 63 18.300001 Z M 61.080002 20.59 C 61.024097 20.850323 60.943741 21.104786 60.84 21.35 C 60.33107 22.490862 59.235939 23.259377 57.990002 23.35 C 57.490559 23.404369 56.985752 23.321388 56.529999 23.110001 C 55.551533 22.730808 54.809937 21.911346 54.529999 20.9 C 54.475624 20.673176 54.438847 20.44249 54.419998 20.210001 C 54.368916 19.759447 54.427231 19.303219 54.59 18.880001 C 54.936844 17.955975 55.665974 17.226847 56.59 16.880001 L 57.240002 16.700001 L 57.57 16.700001 C 58.99081 16.576145 60.328823 17.384611 60.880001 18.700001 C 61.120739 19.29924 61.189991 19.953648 61.080002 20.59 Z M 71.080002 14.459999 L 70.489998 14.51 C 70.116684 14.574917 69.748924 14.668528 69.389999 14.790001 C 67.819611 15.343931 66.577202 16.568016 66 18.130001 C 65.88752 18.472414 65.803894 18.823639 65.75 19.18 C 65.627762 20.004738 65.713699 20.846951 66 21.630001 C 66.478271 23.120018 67.569679 24.335117 69 24.970001 C 69.407463 25.135027 69.829239 25.262228 70.260002 25.35 L 70.769997 25.4 L 71.339996 25.4 C 71.832893 25.358372 72.321335 25.274734 72.800003 25.15 C 74.364067 24.656988 75.625839 23.490582 76.239998 21.970001 C 76.740189 20.662886 76.740189 19.217115 76.239998 17.91 C 75.411507 15.757223 73.304955 14.370274 71 14.459999 Z M 74.349998 21.290001 C 73.962578 22.190605 73.197975 22.874722 72.260002 23.16 C 71.977768 23.23275 71.690193 23.282907 71.400002 23.310001 C 70.900719 23.341557 70.401642 23.245182 69.949997 23.030001 C 68.281296 22.376875 67.422058 20.526213 68 18.83 C 68.353836 17.861982 69.125359 17.105158 70.099998 16.77 L 70.75 16.610001 L 71.080002 16.610001 C 72.464561 16.533575 73.748398 17.333477 74.290001 18.610001 C 74.6455 19.467285 74.649094 20.430086 74.300003 21.290001 Z M 82.120003 8.290001 C 82.103134 7.992542 81.963013 7.715588 81.733353 7.525791 C 81.5037 7.335991 81.205307 7.250542 80.910004 7.290001 L 80.660004 7.349998 C 80.388992 7.456665 80.170189 7.664707 80.050003 7.93 C 79.955002 8.295242 79.924545 8.674274 79.959999 9.049999 L 79.959999 23.58 C 79.92234 23.91227 79.92234 24.24773 79.959999 24.58 C 80.112282 25.090563 80.611343 25.41622 81.139999 25.35 C 81.547562 25.296429 81.893028 25.023895 82.040001 24.640001 C 82.092155 24.288591 82.092155 23.93141 82.040001 23.58 Z M 142.479996 23.49 L 138.600006 18.82 L 141.779999 16.1 C 142.078339 15.66231 142.032608 15.076126 141.669998 14.690001 C 140.889999 14.049999 140.380005 14.58 139.850006 15 L 137.679993 16.810001 L 136.940002 17.43 C 136.860001 17.5 136.800003 17.6 136.679993 17.640001 C 136.559998 17.68 136.679993 17.200001 136.679993 17.050001 L 136.679993 9.689999 C 136.679993 8.43 136.850006 7.330002 135.539993 7.349998 L 135.229996 7.43 C 134.985947 7.535423 134.789886 7.727924 134.679993 7.970001 C 134.594055 8.31974 134.567017 8.681366 134.600006 9.040001 L 134.600006 23.620001 C 134.558167 23.952021 134.558167 24.287979 134.600006 24.620001 C 134.728607 25.149822 135.257935 25.478977 135.789993 25.360001 C 136.16098 25.291937 136.468719 25.033585 136.600006 24.68 C 136.677414 24.288319 136.697632 23.887482 136.660004 23.49 L 136.660004 21.09 C 136.660004 20.710001 136.660004 20.34 136.660004 19.960001 L 140.419998 24.440001 C 140.789993 24.91 141.419998 25.91 142.350006 25.280001 C 142.736145 25.009413 142.90213 24.51959 142.759995 24.07 C 142.679352 23.873627 142.567963 23.691345 142.429993 23.530001 Z M 96.480003 15.030001 C 96.332657 14.641539 95.960464 14.384647 95.544998 14.384647 C 95.129532 14.384647 94.757347 14.641539 94.610001 15.030001 C 94.514221 15.53747 94.490654 16.055933 94.540001 16.57 L 94.540001 19.27 C 94.575218 19.715973 94.575218 20.164028 94.540001 20.610001 C 94.40229 21.66777 93.801331 22.609524 92.900002 23.18 C 92.327156 23.549072 91.649521 23.721115 90.970001 23.67 C 89.228302 23.544783 87.85672 22.134512 87.779999 20.390001 C 87.779999 19.09 87.779999 17.780001 87.779999 16.48 C 87.820099 16.081005 87.820099 15.678995 87.779999 15.280001 C 87.684059 14.771074 87.215431 14.419605 86.699997 14.469999 L 86.470001 14.52 C 86.204185 14.615206 85.987915 14.813452 85.870003 15.07 C 85.750244 15.706091 85.723305 16.35618 85.790001 17 L 85.790001 19.48 C 85.742241 20.301996 85.809555 21.126633 85.989998 21.93 C 86.502388 23.667555 87.86824 25.022093 89.610001 25.52 C 90.487236 25.776657 91.413452 25.817822 92.309998 25.640001 C 92.853035 25.506571 93.374748 25.297886 93.860001 25.02 C 94.059998 24.870001 94.260002 24.720001 94.470001 24.58 L 94.540001 24.51 C 94.559967 24.649288 94.559967 24.790712 94.540001 24.93 C 94.48185 25.488432 94.361092 26.038555 94.18 26.57 C 93.512825 28.374693 92.028282 29.75532 90.18 30.290001 C 89.732773 30.403675 89.278419 30.487196 88.82 30.540001 C 88.440269 30.519743 88.059731 30.519743 87.68 30.540001 C 87.378242 30.619289 87.126114 30.826342 86.98967 31.106928 C 86.853218 31.387514 86.846039 31.71368 86.970001 32 C 87.139999 32.389999 87.470001 32.529999 87.970001 32.619999 L 88.510002 32.619999 C 88.751678 32.660099 88.998322 32.660099 89.239998 32.619999 C 89.738754 32.567673 90.233276 32.480797 90.720001 32.360001 C 91.638496 32.092686 92.504364 31.669897 93.279999 31.110001 C 94.903488 29.948645 96.034157 28.222315 96.449997 26.27 C 96.549881 25.440172 96.559944 24.601988 96.480003 23.77 L 96.480003 16.77 C 96.530113 16.202686 96.506584 15.631273 96.410004 15.07 Z M 164.710007 14.540001 C 164.318497 14.298855 163.855865 14.199972 163.399994 14.26 L 162.949997 14.26 C 162.629715 14.312487 162.312561 14.382593 162 14.469999 C 161.489334 14.640017 161.007233 14.88612 160.570007 15.200001 L 160.130005 15.540001 C 160.239151 15.012667 159.935577 14.487288 159.424179 14.318529 C 158.912796 14.149773 158.35614 14.391272 158.130005 14.879999 C 157.946487 15.686377 157.895828 16.517302 157.979996 17.34 L 157.979996 23.07 C 157.979996 24.27 157.830002 25.200001 158.869995 25.4 C 159.412689 25.495104 159.9366 25.154568 160.070007 24.620001 C 160.115524 24.248055 160.115524 23.871946 160.070007 23.5 C 160.070007 22.710001 160.070007 21.92 160.070007 21.130001 C 159.98822 20.296846 160.062836 19.455748 160.289993 18.65 C 160.68248 17.591995 161.567551 16.792807 162.660004 16.51 C 163.309998 16.33 164.220001 16.560001 164.660004 16.140001 C 164.865005 15.930885 164.978165 15.648657 164.974411 15.355841 C 164.970657 15.063025 164.850296 14.783791 164.639999 14.58 Z M 149.520004 14.43 L 149.149994 14.43 C 148.876633 14.469213 148.606064 14.525997 148.339996 14.6 C 147.37471 14.894863 146.516342 15.464788 145.869995 16.24 C 145.38942 16.832573 145.02626 17.511368 144.800003 18.24 C 144.163208 20.404917 144.898102 22.739998 146.660004 24.15 C 147.926407 25.116587 149.551819 25.481846 151.110001 25.15 C 151.842316 24.968405 152.52533 24.626898 153.110001 24.15 C 153.585922 23.870728 153.942017 23.425615 154.110001 22.9 C 154.122955 22.578264 153.980194 22.269974 153.726456 22.071739 C 153.472717 21.873505 153.139038 21.80958 152.830002 21.9 C 152.520004 22.030001 152.380005 22.32 152.139999 22.51 C 151.78891 22.813801 151.381042 23.04493 150.940002 23.190001 C 149.486343 23.652922 147.904572 23.062338 147.110001 21.76 C 146.871384 21.423103 146.723328 21.030558 146.679993 20.620001 L 152.5 20.620001 C 153.279999 20.620001 154.309998 20.75 154.660004 20.300001 C 155.009995 19.85 154.710007 18.300001 154.490005 17.700001 C 153.711304 15.625496 151.660126 14.310942 149.449997 14.469999 Z M 152.220001 18.82 L 146.710007 18.82 C 146.639999 18.540001 146.960007 18 147.070007 17.82 C 147.461227 17.199938 148.065964 16.744602 148.770004 16.540001 L 149.300003 16.42 L 149.570007 16.42 C 150.659882 16.325813 151.722702 16.793152 152.389999 17.66 C 152.670715 17.991816 152.835709 18.406046 152.860001 18.84 C 152.625259 18.878021 152.386505 18.884747 152.149994 18.860001 Z M 130.929993 18.960001 C 130.471741 16.237675 128.047089 14.290207 125.290001 14.43 L 124.760002 14.48 C 124.393242 14.540419 124.032043 14.63072 123.68 14.75 C 122.178452 15.293467 120.985825 16.46056 120.410004 17.950001 C 119.98761 19.164524 119.966576 20.482618 120.349998 21.710001 C 120.91478 23.31432 122.187607 24.568699 123.800003 25.110001 C 124.7686 25.428947 125.805908 25.477354 126.800003 25.25 C 127.578979 25.040377 128.309387 24.680269 128.949997 24.190001 C 128.89299 24.673456 129.175766 25.132696 129.633118 25.29944 C 130.090485 25.466187 130.602463 25.296703 130.869995 24.890001 C 131.024139 24.503014 131.079132 24.083647 131.029999 23.67 L 131.029999 21.35 C 131.045258 20.563118 130.988342 19.776495 130.860001 19 Z M 128.619995 21.280001 C 128.229752 22.219561 127.435928 22.932531 126.459999 23.220001 C 126.213432 23.281219 125.962791 23.324665 125.709999 23.35 C 125.200172 23.397303 124.687317 23.300276 124.230003 23.07 C 122.942215 22.509672 122.126114 21.220903 122.170189 19.817188 C 122.214264 18.413473 123.109604 17.17844 124.43 16.700001 L 125.080002 16.540001 L 125.389999 16.540001 C 126.809357 16.471998 128.111969 17.322935 128.619995 18.65 C 128.93483 19.51688 128.909821 20.470808 128.550003 21.32 Z M 117.150002 18.790001 C 117.132889 18.445971 117.082657 18.104391 117 17.77 C 116.530296 15.62291 114.563423 14.140322 112.370003 14.280001 L 112.040001 14.280001 L 111.300003 14.43 C 110.441322 14.692442 109.690605 15.225662 109.160004 15.950001 C 109.031433 16.094025 108.92981 16.26 108.860001 16.440001 C 108.738289 16.257025 108.628075 16.066658 108.529999 15.870001 C 108.235817 15.461081 107.857292 15.120068 107.419998 14.870001 C 107.108154 14.688215 106.771187 14.553431 106.419998 14.469999 C 105.197083 14.18087 103.909737 14.497128 102.959999 15.32 C 102.715195 15.552937 102.487915 15.803617 102.279999 16.07 C 102.279999 15.93 102.279999 15.790001 102.279999 15.639999 C 102.307495 15.350563 102.233231 15.060593 102.07 14.82 C 101.81591 14.521957 101.420372 14.38483 101.036331 14.461641 C 100.652283 14.53845 100.339912 14.817156 100.220001 15.190001 C 100.189011 15.44573 100.189011 15.704269 100.220001 15.960001 L 100.220001 24.060001 C 100.183258 24.281822 100.183258 24.508179 100.220001 24.73 C 100.371025 25.071472 100.682281 25.315229 101.050003 25.380001 C 101.253555 25.407888 101.460861 25.380247 101.650002 25.300001 C 101.963692 25.180378 102.203911 24.921679 102.300003 24.6 C 102.330696 24.337563 102.330696 24.072439 102.300003 23.810001 L 102.300003 19.810001 C 102.259026 19.397682 102.259026 18.982319 102.300003 18.57 C 102.441132 17.837202 102.898582 17.20409 103.550003 16.84 C 104.023926 16.553423 104.580147 16.433731 105.129997 16.5 C 105.431389 16.548052 105.724358 16.638973 106 16.77 C 106.675735 17.063074 107.185417 17.642427 107.389999 18.35 C 107.487923 18.870594 107.518173 19.401655 107.480003 19.93 L 107.480003 22.75 C 107.480003 23.890001 107.32 24.860001 108.050003 25.300001 C 108.244598 25.428692 108.478073 25.485291 108.709999 25.460001 C 109.629997 25.310001 109.709999 24.75 109.709999 23.690001 L 109.709999 19.77 C 109.680748 19.30551 109.704231 18.839201 109.779999 18.380001 C 109.958267 17.685713 110.423775 17.100195 111.059998 16.77 C 111.521637 16.490376 112.065178 16.377434 112.599998 16.450001 C 113.669907 16.53797 114.56781 17.291567 114.839996 18.33 C 114.920609 18.822317 114.944099 19.322294 114.910004 19.82 L 114.910004 23.92 C 114.873138 24.165291 114.873138 24.414711 114.910004 24.66 C 115.025101 24.954292 115.262253 25.184149 115.559998 25.290001 C 115.815651 25.379959 116.094353 25.379959 116.349998 25.290001 C 117.129997 24.98 117.029999 24.290001 117.029999 23.220001 Z"/>
        <path id="path1" fill="#51b6bf" stroke="none" d="M 35.27 4.200001 C 33.182571 2.583992 30.807117 1.379299 28.27 0.650002 L 28 0.59 L 27.52 0.450001 C 25.067688 -0.188766 22.520575 -0.381832 20 -0.119999 L 19 0.009998 C 11.947453 1.01083 5.810926 5.352573 2.52 11.669998 C 2.36 11.970001 2.2 12.280001 2.05 12.6 C 1.97 12.77 1.9 12.93 1.82 13.09 L 1.66 13.48 L 1.59 13.66 C 0.453452 16.225931 -0.09002 19.01507 0 21.82 L 0 21.890001 C -0.002509 24.910576 0.617024 27.899309 1.82 30.67 L 1.93 30.970001 C 2.54262 32.447495 3.360686 33.831139 4.36 35.080002 C 6.146593 37.465233 8.390206 39.47089 10.96 40.98 C 11.446666 41.266666 11.946666 41.536667 12.46 41.790001 C 13.11 41.990002 14.3 42.09 14.72 40.380001 L 14.72 22.380001 C 14.72 22.380001 14.47 17.93 17.870001 15.880001 C 18.272532 15.588169 18.709072 15.346392 19.17 15.16 C 22.39155 13.794264 26.129295 14.885485 28.110001 17.77 C 28.110001 17.77 28.25 18.09 28.4 18.050001 C 28.549999 18.01 28.5 17.98 28.540001 17.85 C 29.629829 15.639366 31.566259 13.962568 33.91 13.200001 C 36.453274 12.459131 39.186592 12.757639 41.509998 14.030001 C 41.924698 14.287201 42.322205 14.571135 42.700001 14.879999 L 42.91 15.08 C 42.91 15.08 43.009998 15.209999 43.080002 15.129999 C 43.150002 15.049999 41 8.189999 35.27 4.200001 Z"/>
        <path id="path2" fill="#51b6bf" stroke="none" d="M 44.080002 21.02 C 43.716316 17.798 41.273628 15.200609 38.080002 14.639999 C 35.936249 14.309795 33.75346 14.910061 32.080002 16.290001 C 30.570042 17.454847 29.628021 19.207951 29.49 21.110001 C 29.462898 21.442783 29.462898 21.777218 29.49 22.110001 C 29.397406 23.693394 28.85252 25.21699 27.92 26.5 C 26.791492 27.888155 25.214308 28.839417 23.459999 29.190001 C 22.978813 29.279459 22.488081 29.306347 22 29.27 C 20.051323 29.254597 18.191135 28.454283 16.84 27.050001 C 16.75 26.950001 16.709999 27.050001 16.709999 27.050001 L 16.77 39.880001 C 16.710686 40.940865 16.310909 41.954334 15.63 42.77 C 15.51 42.850002 15.49 42.920002 15.52 42.959999 C 15.55 43 15.8 43.09 15.8 43.09 C 17.814995 43.672352 19.902548 43.965282 22 43.959999 L 22.59 43.959999 C 23.01 43.959999 23.41 43.959999 23.809999 43.889999 C 25.16086 43.782394 26.499468 43.554829 27.809999 43.209999 L 29 42.889999 L 29.629999 42.670002 L 29.690001 42.670002 C 30.120001 42.52 30.450001 42.380001 30.690001 42.290001 L 30.879999 42.200001 L 30.940001 42.200001 C 36.552658 39.563091 40.874722 34.787209 42.939999 28.940001 C 43.838844 26.401077 44.226292 23.709358 44.080002 21.02 Z"/>
    </g>
</svg>
